<svg width="31" height="31" viewBox="0 0 31 31" fill="none" xmlns="http://www.w3.org/2000/svg">
<path d="M23.3735 7.68895C23.2028 7.54746 22.997 7.4548 22.7779 7.42079C22.5588 7.38678 22.3346 7.41269 22.129 7.49578L7.94474 13.2219C7.71553 13.3161 7.52038 13.4778 7.38522 13.6855C7.25005 13.8932 7.18125 14.1371 7.18795 14.3848C7.19465 14.6325 7.27653 14.8723 7.42273 15.0724C7.56892 15.2725 7.77252 15.4234 8.00649 15.5051L11.0671 16.5675L12.7256 22.0506C12.7288 22.0617 12.7391 22.0688 12.7438 22.0791C12.7609 22.1228 12.7859 22.1631 12.8174 22.1978C12.8654 22.2514 12.9274 22.2906 12.9964 22.311C13.0043 22.3142 13.0098 22.3213 13.0177 22.3229H13.0225L13.0249 22.3237C13.0861 22.3369 13.1498 22.3336 13.2093 22.3142C13.2157 22.3126 13.222 22.3126 13.2291 22.3102C13.2863 22.2902 13.3381 22.2571 13.3803 22.2137C13.3851 22.2081 13.393 22.2073 13.3977 22.2026L15.783 19.5695L19.264 22.2651C19.4754 22.4306 19.7358 22.52 20.0042 22.52C20.5853 22.52 21.0864 22.1131 21.2059 21.5455L23.7884 8.86457C23.8322 8.6493 23.8167 8.42617 23.7437 8.21899C23.6706 8.01181 23.5427 7.82834 23.3735 7.68816M13.5909 17.6085L13.0312 20.3295L11.8635 16.4677L17.6545 13.4515L13.6986 17.4082C13.6438 17.463 13.6063 17.5326 13.5909 17.6085ZM20.4301 21.3864C20.4152 21.4582 20.3822 21.5249 20.3341 21.5802C20.286 21.6355 20.2244 21.6776 20.1554 21.7022C20.0881 21.7282 20.0151 21.7361 19.9438 21.7253C19.8724 21.7144 19.8051 21.6852 19.7485 21.6405L15.9778 18.72C15.899 18.6592 15.8001 18.6303 15.7009 18.6391C15.6017 18.6479 15.5095 18.6938 15.4426 18.7675L13.7825 20.5971L14.3414 17.884L20.0327 12.1919C20.0993 12.1251 20.1399 12.0366 20.147 11.9424C20.1542 11.8483 20.1274 11.7547 20.0716 11.6786C20.0158 11.6024 19.9346 11.5487 19.8427 11.5271C19.7508 11.5056 19.6542 11.5176 19.5704 11.561L11.3663 15.8344L8.26536 14.7562C8.18314 14.729 8.11143 14.6769 8.06021 14.6071C8.00899 14.5373 7.9808 14.4532 7.97957 14.3667C7.97563 14.2793 7.99896 14.1929 8.04634 14.1194C8.09372 14.0459 8.1628 13.989 8.24399 13.9566L22.4259 8.23045C22.4986 8.19957 22.5784 8.18959 22.6565 8.20161C22.7345 8.21364 22.8076 8.24721 22.8677 8.29853C22.9273 8.34682 22.9724 8.41073 22.9978 8.48315C23.0233 8.55556 23.0281 8.63362 23.0117 8.70862L20.4301 21.3864Z" fill="#FAFAFA"/>
<circle cx="15.5" cy="15.5" r="15" stroke="#FAFAFA"/>
</svg>
